<svg width="40" height="40" viewBox="0 0 40 40" fill="none" xmlns="http://www.w3.org/2000/svg">
<rect width="40" height="40" rx="8" fill="#001E36"/>
<path d="M9.00391 28.0513V10.4652C9.00391 10.337 9.05762 10.2725 9.16496 10.2725C9.45085 10.2725 9.71189 10.2682 10.1056 10.2588C10.4989 10.2497 10.9238 10.2406 11.3802 10.2313C11.8364 10.2222 12.3194 10.213 12.8292 10.2037C13.339 10.1947 13.8443 10.1901 14.3453 10.1899C15.7046 10.1899 16.8494 10.3642 17.7799 10.7129C18.6192 11.0041 19.3847 11.4835 20.0206 12.1164C20.5596 12.665 20.9761 13.327 21.2414 14.0567C21.4925 14.7669 21.6197 15.5168 21.6172 16.2722C21.6172 17.7403 21.2862 18.9512 20.6243 19.905C19.958 20.8627 19.0215 21.5879 17.941 21.9829C16.8139 22.4142 15.5616 22.5604 14.1843 22.5604C13.7906 22.5604 13.5133 22.5559 13.3524 22.5467C13.1915 22.5376 12.95 22.533 12.628 22.5329V28.0238C12.6327 28.0575 12.6297 28.0918 12.6192 28.124C12.6087 28.1563 12.591 28.1856 12.5676 28.2096C12.5442 28.2336 12.5156 28.2517 12.4842 28.2625C12.4527 28.2732 12.4193 28.2763 12.3865 28.2715H9.19173C9.06641 28.2715 9.00391 28.1984 9.00391 28.0513ZM12.628 13.5751V19.311C12.8602 19.3295 13.0749 19.3386 13.2719 19.3385H14.1574C14.809 19.3363 15.4562 19.2303 16.0761 19.0243C16.6077 18.8624 17.0827 18.5471 17.4446 18.1161C17.7933 17.6943 17.9678 17.1072 17.9678 16.3548C17.982 15.8224 17.8469 15.297 17.5787 14.8411C17.2967 14.4001 16.8891 14.059 16.4114 13.8641C15.7877 13.6154 15.1215 13.4984 14.4526 13.5201C14.0232 13.5201 13.6431 13.5246 13.3122 13.5338C12.981 13.5433 12.7529 13.557 12.628 13.5751V13.5751Z" fill="#31A8FF"/>
<path d="M31.993 18.2685C31.4887 18.0027 30.9516 17.8083 30.3964 17.6905C29.7846 17.5466 29.1591 17.4727 28.5314 17.4703C28.1919 17.4609 27.8529 17.5026 27.5252 17.5942C27.3166 17.6418 27.1312 17.7637 27.0019 17.9382C26.9145 18.0778 26.8679 18.2402 26.8678 18.4061C26.8727 18.567 26.9293 18.7218 27.0288 18.8464C27.1855 19.0345 27.377 19.1888 27.5922 19.3005C27.9748 19.5118 28.369 19.7002 28.7729 19.8647C29.6735 20.1739 30.534 20.5944 31.3355 21.1169C31.8815 21.4704 32.3333 21.9574 32.6503 22.5343C32.9169 23.0805 33.0504 23.6849 33.0394 24.2957C33.0555 25.1021 32.8308 25.8944 32.3955 26.5662C31.9294 27.2481 31.282 27.7783 30.5305 28.0936C29.7163 28.4604 28.71 28.6439 27.5118 28.644C26.7505 28.6519 25.9906 28.5781 25.2443 28.4239C24.6564 28.3133 24.084 28.1284 23.5404 27.8734C23.4817 27.8424 23.4329 27.7948 23.3997 27.7363C23.3664 27.6778 23.3501 27.6108 23.3526 27.5431V24.5709C23.3493 24.5418 23.3539 24.5123 23.3657 24.4856C23.3775 24.459 23.3962 24.4361 23.4197 24.4195C23.4428 24.4061 23.4692 24.4003 23.4956 24.4027C23.5219 24.4052 23.5469 24.4158 23.5673 24.4333C24.2092 24.8215 24.9063 25.1047 25.6334 25.2726C26.2743 25.4374 26.9316 25.5251 27.5922 25.5341C28.2182 25.5341 28.6789 25.4515 28.9742 25.2864C29.1075 25.2238 29.2203 25.1229 29.2989 24.9959C29.3775 24.8689 29.4185 24.7213 29.4169 24.5709C29.4169 24.3326 29.2828 24.1033 29.0144 23.8828C28.7461 23.6627 28.2005 23.3966 27.3776 23.0847C26.535 22.7839 25.7362 22.3673 25.0028 21.8462C24.4783 21.4721 24.0464 20.9773 23.7417 20.4014C23.4778 19.859 23.3444 19.2598 23.3526 18.6538C23.3511 17.9256 23.5461 17.2112 23.9161 16.5897C24.3379 15.9052 24.9436 15.3605 25.6603 15.0209C26.4472 14.6176 27.4311 14.4158 28.6119 14.4155C29.3035 14.4098 29.9944 14.4604 30.6781 14.5668C31.1732 14.6312 31.6573 14.7655 32.1166 14.9659C32.153 14.9766 32.1865 14.9959 32.2144 15.0221C32.2424 15.0484 32.264 15.081 32.2775 15.1173C32.2957 15.1845 32.3047 15.2539 32.3044 15.3237V18.1033C32.3062 18.1357 32.2998 18.168 32.2857 18.1969C32.2715 18.2259 32.2502 18.2506 32.2239 18.2685C32.188 18.2868 32.1485 18.2963 32.1084 18.2963C32.0684 18.2963 32.0288 18.2868 31.993 18.2685Z" fill="#31A8FF"/>
</svg>
